HIERARCHY
ROOT root
{
	OFFSET	0	13.1	24.9
	CHANNELS 6  Xposition Yposition Zposition Xrotation Yrotation Zrotation
	JOINT spine_1
	{
		OFFSET	0	9.99999	0
		CHANNELS 3  Xrotation Yrotation Zrotation
		JOINT spine_2
		{
			OFFSET	0	112	-10
			CHANNELS 3  Xrotation Yrotation Zrotation
			JOINT spine_3
			{
				OFFSET	0	206.5	19.3
				CHANNELS 3  Xrotation Yrotation Zrotation
				JOINT spine_4
				{
					OFFSET	0	110.4	14.6
					CHANNELS 3  Xrotation Yrotation Zrotation
					JOINT neck_1
					{
						OFFSET	0	71.8	-50.3
						CHANNELS 3  Xrotation Yrotation Zrotation
						JOINT neck_2
						{
							OFFSET	0	86.2	-25.8
							CHANNELS 3  Xrotation Yrotation Zrotation
							JOINT head_ee
							{
								OFFSET	0	179.8	-8.7
								CHANNELS 3  Xrotation Yrotation Zrotation
								End Site
								{
									OFFSET	1	0	0
								}
							}
						}
					}
					JOINT left_clavicle
					{
						OFFSET	-43.2	22.4	-70.8
						CHANNELS 3  Xrotation Yrotation Zrotation
						JOINT left_shoulder
						{
							OFFSET	-93.9	-5.79999	48.7
							CHANNELS 3  Xrotation Yrotation Zrotation
							JOINT left_elbow
							{
								OFFSET	-291.4	-30.8	15.2
								CHANNELS 3  Xrotation Yrotation Zrotation
								JOINT left_lowarm_twist
								{
									OFFSET	-110.7	-3.89999	13.6
									CHANNELS 3  Xrotation Yrotation Zrotation
									JOINT left_hand
									{
										OFFSET	-110.7	-3.89999	13.6
										CHANNELS 3  Xrotation Yrotation Zrotation
										JOINT left_ee
										{
											OFFSET	-80.8	-5.10001	12.1
											CHANNELS 3  Xrotation Yrotation Zrotation
											End Site
											{
												OFFSET	1	0	0
											}
										}
									}
								}
							}
						}
					}
					JOINT right_clavicle
					{
						OFFSET	43.2	22.4	-70.8
						CHANNELS 3  Xrotation Yrotation Zrotation
						JOINT right_shoulder
						{
							OFFSET	93.9	-5.79999	48.7
							CHANNELS 3  Xrotation Yrotation Zrotation
							JOINT right_elbow
							{
								OFFSET	291.4	-30.8	15.2
								CHANNELS 3  Xrotation Yrotation Zrotation
								JOINT right_lowarm_twist
								{
									OFFSET	110.7	-3.89999	13.6
									CHANNELS 3  Xrotation Yrotation Zrotation
									JOINT right_hand
									{
										OFFSET	110.7	-3.89999	13.6
										CHANNELS 3  Xrotation Yrotation Zrotation
										JOINT right_ee
										{
											OFFSET	80.8	-5.10001	12.1
											CHANNELS 3  Xrotation Yrotation Zrotation
											End Site
											{
												OFFSET	1	0	0
											}
										}
									}
								}
							}
						}
					}
				}
			}
		}
	}
	JOINT left_hip
	{
		OFFSET	-82.8	-127.5	0.300001
		CHANNELS 3  Xrotation Yrotation Zrotation
		JOINT left_knee
		{
			OFFSET	-28.2	-396.7	2.2
			CHANNELS 3  Xrotation Yrotation Zrotation
			JOINT left_ankle
			{
				OFFSET	-11.7	-411.3	35.4
				CHANNELS 3  Xrotation Yrotation Zrotation
				JOINT left_toes
				{
					OFFSET	0	-60	-88.6
					CHANNELS 3  Xrotation Yrotation Zrotation
					JOINT left_foot_ee
					{
						OFFSET	-22.5	-16.5	-42.2
						CHANNELS 3  Xrotation Yrotation Zrotation
						End Site
						{
							OFFSET	1	0	0
						}
					}
				}
			}
		}
	}
	JOINT right_hip
	{
		OFFSET	82.8	-127.5	0.300001
		CHANNELS 3  Xrotation Yrotation Zrotation
		JOINT right_knee
		{
			OFFSET	28.2	-396.7	2.2
			CHANNELS 3  Xrotation Yrotation Zrotation
			JOINT right_ankle
			{
				OFFSET	11.7	-411.3	35.4
				CHANNELS 3  Xrotation Yrotation Zrotation
				JOINT right_toes
				{
					OFFSET	0	-60	-88.6
					CHANNELS 3  Xrotation Yrotation Zrotation
					JOINT right_foot_ee
					{
						OFFSET	22.5	-16.5	-42.2
						CHANNELS 3  Xrotation Yrotation Zrotation
						End Site
						{
							OFFSET	1	0	0
						}
					}
				}
			}
		}
	}
}
MOTION
Frames: 8
Frame Time: 0.02
1656.09 707.405 -988.891 -160.137 -45.7186 -170.942 2.86129 0.674847 2.80756 2.86554 0.494901 2.84477 2.88911 0.0317522 2.88729 2.8778 0.48716 2.84611 -3.21626 10.6948 -0.0981104 -3.05853 19.5547 1.4662 -0.0 0.0 -0.0 6.12497 21.3179 11.3412 -32.9732 -20.1267 60.2236 0.77681 -21.0471 0.144306 3.3772 0.106688 -0.41811 -0.0678315 19.5822 7.50556 -0.0 0.0 -0.0 12.261 26.7516 -23.8898 0.241192 20.795 -50.9262 1.67301 39.6474 -0.603139 24.4799 -0.203737 3.09676 0.489848 5.4984 -0.972474 0.0 0.0 0.0 42.128 9.68282 -2.51191 -8.93228 0.263435 1.34413 -5.31167 13.8663 0.789377 -25.2104 0.0 0.0 -0.0 0.0 -0.0 16.8807 8.10028 15.9361 -33.6085 0.110976 -5.08337 23.4053 16.6433 3.42548 -4.39204 0.0 0.0 0.0 0.0 0.0 
1684.29 708.25 -985.866 -161.157 -45.062 -172.332 2.80829 0.530219 2.79562 2.81257 0.351325 2.82367 2.82887 -0.109742 2.84331 2.81775 0.3405 2.82499 -2.61212 11.8085 0.543398 -2.40681 21.0106 2.19389 -0.0 0.0 -0.0 6.31969 22.2092 11.5673 -32.4143 -20.107 59.2408 0.874168 -23.4142 0.181148 4.34858 0.132789 -0.539446 0.126845 18.8241 8.3947 -0.0 0.0 -0.0 11.8397 26.9019 -22.9113 -0.574917 20.3198 -52.6147 1.6472 39.2104 -0.586744 22.6361 -0.234702 2.86328 0.528412 4.87102 -1.49727 0.0 0.0 0.0 41.1513 9.31417 -1.79066 -11.7459 0.302674 1.77404 -1.81024 15.9848 0.268307 -20.6709 0.0 0.0 -0.0 0.0 -0.0 15.0268 8.82748 17.3304 -33.9641 0.128068 -5.13526 20.8391 13.9099 3.03412 -4.50756 0.0 0.0 0.0 0.0 0.0 
1713.77 711.6 -986.168 -161.82 -44.0165 -173.2 2.80257 0.402663 2.68038 2.80653 0.231351 2.70055 2.81646 -0.208943 2.70238 2.80634 0.220309 2.70148 -2.51723 11.6969 0.638564 -2.31434 20.72 2.26359 -0.0 0.0 -0.0 6.39935 22.4585 11.6649 -31.4074 -19.9854 59.0617 0.902581 -24.0897 0.192592 4.0135 0.124019 -0.497543 0.433921 17.2339 9.68577 -0.0 0.0 -0.0 11.1127 26.8 -21.2757 -1.24608 19.2294 -53.5481 1.64337 39.1452 -0.584327 22.6567 -0.234398 2.86589 0.31963 3.00043 -0.879261 0.0 0.0 0.0 40.897 8.69099 -1.37722 -14.1985 0.319627 2.14994 -1.56659 18.3264 0.233527 -19.2405 0.0 0.0 -0.0 0.0 -0.0 11.9342 18.0889 16.9302 -34.9389 0.176564 -5.27693 12.9911 3.98413 1.86511 -5.69752 0.0 0.0 0.0 0.0 0.0 
1740.63 715.891 -977.773 -162.635 -44.3338 -173.647 2.7336 0.378163 2.76935 2.73785 0.201246 2.78778 2.74666 -0.256217 2.78327 2.73589 0.186389 2.78882 -4.02531 11.4909 1.0356 -3.89728 20.244 2.8859 -0.0 0.0 -0.0 6.25821 22.8176 11.4345 -29.814 -19.9591 57.7376 0.88786 -23.7406 0.186624 4.08718 0.125968 -0.506751 0.150594 18.2928 8.3391 -0.0 0.0 -0.0 10.845 26.7802 -20.6744 -2.42457 18.5752 -55.5585 1.58591 38.1508 -0.548437 22.386 -0.238323 2.83154 0.210809 -0.0746075 -1.43906 0.0 0.0 0.0 39.7854 8.82804 -0.985382 -15.4851 0.322082 2.34732 0.0402649 18.266 -0.00598006 -18.4163 0.0 0.0 -0.0 0.0 -0.0 11.7127 18.145 16.7603 -35.8808 0.225716 -5.41304 12.7649 3.60367 1.83185 -4.97323 0.0 0.0 0.0 0.0 0.0 
1766.28 719.228 -972.379 -163.302 -43.5966 -173.661 2.75801 0.434872 2.64418 2.76186 0.265796 2.66647 2.77334 -0.171406 2.67419 2.76345 0.25293 2.66772 -1.12552 11.8388 -0.275769 -0.829256 21.507 1.08681 -0.0 0.0 -0.0 6.43462 21.9189 11.7565 -28.5812 -20.4615 57.001 0.885379 -23.6815 0.185626 3.64486 0.114086 -0.4515 -0.222706 18.3138 6.07612 -0.0 0.0 -0.0 9.96635 26.4083 -18.7445 -4.94886 19.2683 -57.1748 1.57794 38.0108 -0.543527 23.0532 -0.228356 2.91618 0.367305 2.29339 -1.49643 0.0 0.0 0.0 38.1758 8.78467 -0.852483 -14.7015 0.321114 2.2271 0.347808 17.3426 -0.0514821 -18.1895 0.0 0.0 -0.0 0.0 -0.0 14.0216 19.5259 16.3195 -39.8241 0.455615 -5.97365 12.4746 4.08667 1.79535 -5.19099 0.0 0.0 0.0 0.0 0.0 
1796.76 725.046 -964.038 -163.765 -44.7135 -173.474 2.72452 0.212928 2.52737 2.72807 0.0517262 2.5358 2.72949 -0.363486 2.51016 2.7207 0.0373766 2.53605 -1.4915 11.3433 0.783817 -1.26705 19.8193 2.21653 -0.0 0.0 -0.0 6.54485 23.1617 11.8197 -26.6557 -21.6376 55.4618 0.841338 -22.6249 0.168309 2.99963 0.0959877 -0.371067 -0.924847 18.8691 2.07121 -0.0 0.0 -0.0 9.42714 26.2697 -17.5568 -6.17331 17.7337 -59.6835 1.38954 34.5392 -0.432004 23.3903 -0.222945 2.9589 0.381464 1.61494 -1.87541 0.0 0.0 0.0 36.6471 9.13247 -0.0707242 -17.3426 0.317807 2.63227 4.42007 16.3808 -0.645968 -16.9866 0.0 0.0 -0.0 0.0 -0.0 15.2492 22.4023 14.5315 -43.5639 0.708924 -6.48984 13.4126 1.05598 1.9048 -4.81073 0.0 0.0 0.0 0.0 0.0 
1822.74 725.716 -952.916 -163.918 -45.9377 -173.046 2.80743 0.18806 2.33867 2.81047 0.0389048 2.34589 2.81125 -0.341757 2.32121 2.80373 0.0290189 2.34604 -2.01857 10.6897 1.07134 -1.84404 18.4818 2.51549 -0.0 0.0 -0.0 5.88359 23.5279 10.8524 -24.9307 -23.2314 54.5782 0.870551 -23.3277 0.179713 2.2749 0.0745801 -0.280969 -1.04173 17.7604 0.887065 -0.0 0.0 -0.0 8.49328 26.0236 -15.5114 -7.83695 16.5152 -62.2732 1.22724 31.2958 -0.34377 23.9343 -0.213684 3.02777 0.365474 0.775602 -2.11857 0.0 0.0 0.0 34.5821 9.52545 0.463384 -17.7848 0.315429 2.70007 10.1649 14.9485 -1.45507 -16.4627 0.0 0.0 -0.0 0.0 -0.0 18.1906 25.8643 11.9023 -50.7697 1.28986 -7.43381 15.9703 -2.16357 2.22868 -3.50093 0.0 0.0 0.0 0.0 0.0 
1845.25 730.344 -942.112 -163.888 -47.3265 -172.29 3.09339 0.186629 2.20053 3.09609 0.0462597 2.20795 3.09695 -0.301208 2.1878 3.09027 0.0480072 2.20791 -2.28864 9.80746 1.87503 -2.16163 16.2844 3.28005 -0.0 0.0 -0.0 5.77701 23.7491 10.6886 -23.8567 -24.2161 53.425 0.879379 -23.5386 0.183224 1.8145 0.0603884 -0.223874 -1.39177 16.9938 -1.58073 -0.0 0.0 -0.0 8.0872 25.8894 -14.6287 -8.91434 15.8014 -64.9449 1.06216 27.7511 -0.262385 24.2392 -0.208206 3.06634 0.368776 -0.451633 -2.65089 0.0 0.0 0.0 33.0103 9.74638 0.728766 -18.8449 0.307596 2.86253 14.3907 14.242 -2.02617 -16.327 0.0 0.0 -0.0 0.0 -0.0 20.2227 26.796 9.71477 -54.9608 1.68111 -7.94735 14.767 -4.87813 2.0643 -3.25174 0.0 0.0 0.0 0.0 0.0 
